<svg width="262" height="16" viewBox="0 0 262 16" fill="none" xmlns="http://www.w3.org/2000/svg">
<path d="M10.2024 4H8.79332C8.70999 3.5947 8.56416 3.23864 8.35582 2.93182C8.15128 2.625 7.90128 2.36742 7.60582 2.15909C7.31416 1.94697 6.99029 1.78788 6.63423 1.68182C6.27817 1.57576 5.90696 1.52273 5.5206 1.52273C4.81605 1.52273 4.17779 1.70076 3.60582 2.05682C3.03764 2.41288 2.58499 2.9375 2.24787 3.63068C1.91454 4.32386 1.74787 5.17424 1.74787 6.18182C1.74787 7.18939 1.91454 8.03977 2.24787 8.73295C2.58499 9.42614 3.03764 9.95076 3.60582 10.3068C4.17779 10.6629 4.81605 10.8409 5.5206 10.8409C5.90696 10.8409 6.27817 10.7879 6.63423 10.6818C6.99029 10.5758 7.31416 10.4186 7.60582 10.2102C7.90128 9.99811 8.15128 9.73864 8.35582 9.43182C8.56416 9.12121 8.70999 8.76515 8.79332 8.36364H10.2024C10.0964 8.95833 9.90317 9.49053 9.62287 9.96023C9.34257 10.4299 8.99408 10.8295 8.57742 11.1591C8.16075 11.4848 7.69295 11.733 7.17401 11.9034C6.65885 12.0739 6.10772 12.1591 5.5206 12.1591C4.52817 12.1591 3.6456 11.9167 2.87287 11.4318C2.10014 10.947 1.49219 10.2576 1.04901 9.36364C0.605824 8.4697 0.384233 7.40909 0.384233 6.18182C0.384233 4.95455 0.605824 3.89394 1.04901 3C1.49219 2.10606 2.10014 1.41667 2.87287 0.931818C3.6456 0.446969 4.52817 0.204545 5.5206 0.204545C6.10772 0.204545 6.65885 0.289772 7.17401 0.460227C7.69295 0.630682 8.16075 0.880682 8.57742 1.21023C8.99408 1.53598 9.34257 1.93371 9.62287 2.40341C9.90317 2.86932 10.0964 3.40151 10.2024 4ZM14.8658 12.2045C14.3127 12.2045 13.8108 12.1004 13.3601 11.892C12.9093 11.6799 12.5514 11.375 12.2862 10.9773C12.0211 10.5758 11.8885 10.0909 11.8885 9.52273C11.8885 9.02273 11.987 8.61742 12.1839 8.30682C12.3809 7.99242 12.6442 7.74621 12.9737 7.56818C13.3033 7.39015 13.6669 7.25758 14.0646 7.17045C14.4661 7.07955 14.8696 7.00758 15.2749 6.95455C15.8052 6.88636 16.2351 6.83523 16.5646 6.80114C16.898 6.76326 17.1404 6.70076 17.2919 6.61364C17.4472 6.52652 17.5249 6.375 17.5249 6.15909V6.11364C17.5249 5.55303 17.3714 5.11742 17.0646 4.80682C16.7616 4.49621 16.3014 4.34091 15.6839 4.34091C15.0438 4.34091 14.5419 4.48106 14.1783 4.76136C13.8146 5.04167 13.5589 5.34091 13.4112 5.65909L12.1385 5.20455C12.3658 4.67424 12.6688 4.26136 13.0476 3.96591C13.4302 3.66667 13.8468 3.45833 14.2976 3.34091C14.7521 3.2197 15.1991 3.15909 15.6385 3.15909C15.9188 3.15909 16.2408 3.19318 16.6044 3.26136C16.9718 3.32576 17.326 3.46023 17.6669 3.66477C18.0116 3.86932 18.2976 4.17803 18.5249 4.59091C18.7521 5.00379 18.8658 5.55682 18.8658 6.25V12H17.5249V10.8182H17.4567C17.3658 11.0076 17.2143 11.2102 17.0021 11.4261C16.79 11.642 16.5078 11.8258 16.1555 11.9773C15.8033 12.1288 15.3733 12.2045 14.8658 12.2045ZM15.0703 11C15.6006 11 16.0476 10.8958 16.4112 10.6875C16.7786 10.4792 17.0552 10.2102 17.2408 9.88068C17.4302 9.55114 17.5249 9.20455 17.5249 8.84091V7.61364C17.468 7.68182 17.343 7.74432 17.1499 7.80114C16.9605 7.85417 16.7408 7.90151 16.4908 7.94318C16.2446 7.98106 16.004 8.01515 15.7692 8.04545C15.5381 8.07197 15.3506 8.0947 15.2067 8.11364C14.8582 8.15909 14.5324 8.23295 14.2294 8.33523C13.9302 8.43371 13.6877 8.58333 13.5021 8.78409C13.3203 8.98106 13.2294 9.25 13.2294 9.59091C13.2294 10.0568 13.4018 10.4091 13.7464 10.6477C14.0949 10.8826 14.5362 11 15.0703 11ZM25.1087 3.27273V4.40909H20.5859V3.27273H25.1087ZM21.9041 1.18182H23.245V9.5C23.245 9.87879 23.3 10.1629 23.4098 10.3523C23.5234 10.5379 23.6674 10.6629 23.8416 10.7273C24.0196 10.7879 24.2071 10.8182 24.4041 10.8182C24.5518 10.8182 24.6731 10.8106 24.7678 10.7955C24.8625 10.7765 24.9382 10.7614 24.995 10.75L25.2678 11.9545C25.1768 11.9886 25.05 12.0227 24.8871 12.0568C24.7242 12.0947 24.5178 12.1136 24.2678 12.1136C23.889 12.1136 23.5178 12.0322 23.1541 11.8693C22.7943 11.7064 22.495 11.4583 22.2564 11.125C22.0215 10.7917 21.9041 10.3712 21.9041 9.86364V1.18182ZM30.6911 12.1818C29.8501 12.1818 29.1248 11.9962 28.5149 11.625C27.9089 11.25 27.4411 10.7273 27.1115 10.0568C26.7857 9.38258 26.6229 8.59848 26.6229 7.70455C26.6229 6.81061 26.7857 6.02273 27.1115 5.34091C27.4411 4.6553 27.8994 4.12121 28.4865 3.73864C29.0774 3.35227 29.7668 3.15909 30.5547 3.15909C31.0092 3.15909 31.4581 3.23485 31.9013 3.38636C32.3445 3.53788 32.7479 3.78409 33.1115 4.125C33.4751 4.46212 33.7649 4.90909 33.9808 5.46591C34.1967 6.02273 34.3047 6.70833 34.3047 7.52273V8.09091H27.5774V6.93182H32.9411C32.9411 6.43939 32.8426 6 32.6456 5.61364C32.4524 5.22727 32.1759 4.92235 31.8161 4.69886C31.46 4.47538 31.0395 4.36364 30.5547 4.36364C30.0206 4.36364 29.5585 4.49621 29.1683 4.76136C28.782 5.02273 28.4846 5.36364 28.2763 5.78409C28.0679 6.20455 27.9638 6.6553 27.9638 7.13636V7.90909C27.9638 8.56818 28.0774 9.12689 28.3047 9.58523C28.5357 10.0398 28.8558 10.3864 29.2649 10.625C29.674 10.8598 30.1494 10.9773 30.6911 10.9773C31.0433 10.9773 31.3615 10.928 31.6456 10.8295C31.9335 10.7273 32.1816 10.5758 32.3899 10.375C32.5982 10.1705 32.7592 9.91667 32.8729 9.61364L34.1683 9.97727C34.032 10.4167 33.8028 10.803 33.4808 11.1364C33.1589 11.4659 32.7611 11.7235 32.2876 11.9091C31.8142 12.0909 31.282 12.1818 30.6911 12.1818ZM36.3445 12V3.27273H37.6399V4.59091H37.7308C37.8899 4.15909 38.1778 3.80871 38.5945 3.53977C39.0111 3.27083 39.4808 3.13636 40.0036 3.13636C40.102 3.13636 40.2251 3.13826 40.3729 3.14205C40.5206 3.14583 40.6323 3.15152 40.7081 3.15909V4.52273C40.6626 4.51136 40.5585 4.49432 40.3956 4.47159C40.2365 4.44508 40.0679 4.43182 39.8899 4.43182C39.4657 4.43182 39.0869 4.52083 38.7536 4.69886C38.424 4.87311 38.1626 5.11553 37.9695 5.42614C37.7801 5.73295 37.6854 6.08333 37.6854 6.47727V12H36.3445ZM42.2976 12V3.27273H43.6385V12H42.2976ZM42.9794 1.81818C42.718 1.81818 42.4927 1.72917 42.3033 1.55114C42.1177 1.37311 42.0249 1.15909 42.0249 0.909091C42.0249 0.659091 42.1177 0.445076 42.3033 0.267045C42.4927 0.089015 42.718 0 42.9794 0C43.2408 0 43.4643 0.089015 43.6499 0.267045C43.8393 0.445076 43.9339 0.659091 43.9339 0.909091C43.9339 1.15909 43.8393 1.37311 43.6499 1.55114C43.4643 1.72917 43.2408 1.81818 42.9794 1.81818ZM47.4354 6.75V12H46.0945V3.27273H47.3899V4.63636H47.5036C47.7081 4.19318 48.0187 3.83712 48.4354 3.56818C48.852 3.29545 49.3899 3.15909 50.049 3.15909C50.6399 3.15909 51.157 3.2803 51.6001 3.52273C52.0433 3.76136 52.388 4.125 52.6342 4.61364C52.8804 5.09848 53.0036 5.71212 53.0036 6.45455V12H51.6626V6.54545C51.6626 5.85985 51.4846 5.32576 51.1286 4.94318C50.7725 4.55682 50.2839 4.36364 49.6626 4.36364C49.2346 4.36364 48.852 4.45644 48.5149 4.64205C48.1816 4.82765 47.9183 5.09848 47.7251 5.45455C47.532 5.81061 47.4354 6.24242 47.4354 6.75ZM58.9766 15.4545C58.3288 15.4545 57.772 15.3712 57.3061 15.2045C56.8402 15.0417 56.4519 14.8258 56.1413 14.5568C55.8345 14.2917 55.5902 14.0076 55.4084 13.7045L56.4766 12.9545C56.5978 13.1136 56.7512 13.2955 56.9368 13.5C57.1224 13.7083 57.3762 13.8883 57.6982 14.0398C58.0239 14.1951 58.45 14.2727 58.9766 14.2727C59.6811 14.2727 60.2625 14.1023 60.7209 13.7614C61.1792 13.4205 61.4084 12.8864 61.4084 12.1591V10.3864H61.2947C61.1963 10.5455 61.0561 10.7424 60.8743 10.9773C60.6963 11.2083 60.4387 11.4148 60.1016 11.5966C59.7682 11.7746 59.3175 11.8636 58.7493 11.8636C58.0447 11.8636 57.4122 11.697 56.8516 11.3636C56.2947 11.0303 55.8535 10.5455 55.5277 9.90909C55.2057 9.27273 55.0447 8.5 55.0447 7.59091C55.0447 6.69697 55.2019 5.91856 55.5163 5.25568C55.8307 4.58901 56.2682 4.07386 56.8288 3.71023C57.3894 3.3428 58.0372 3.15909 58.772 3.15909C59.3402 3.15909 59.791 3.25379 60.1243 3.44318C60.4614 3.62879 60.719 3.84091 60.897 4.07955C61.0788 4.31439 61.219 4.50758 61.3175 4.65909H61.4538V3.27273H62.7493V12.25C62.7493 13 62.5788 13.6098 62.2379 14.0795C61.9008 14.553 61.4463 14.8996 60.8743 15.1193C60.3061 15.3428 59.6735 15.4545 58.9766 15.4545ZM58.9311 10.6591C59.469 10.6591 59.9235 10.536 60.2947 10.2898C60.666 10.0436 60.9482 9.68939 61.1413 9.22727C61.3345 8.76515 61.4311 8.21212 61.4311 7.56818C61.4311 6.93939 61.3364 6.38447 61.147 5.90341C60.9576 5.42235 60.6773 5.04545 60.3061 4.77273C59.9349 4.5 59.4766 4.36364 58.9311 4.36364C58.3629 4.36364 57.8894 4.50758 57.5107 4.79545C57.1357 5.08333 56.8535 5.4697 56.6641 5.95455C56.4785 6.43939 56.3857 6.97727 56.3857 7.56818C56.3857 8.17424 56.4804 8.71023 56.6697 9.17614C56.8629 9.63826 57.147 10.0019 57.522 10.267C57.9008 10.5284 58.3705 10.6591 58.9311 10.6591ZM79.1129 0.363636V12H77.7493L71.4084 2.86364H71.2947V12H69.8857V0.363636H71.2493L77.6129 9.52273H77.7266V0.363636H79.1129ZM87.2507 8.43182V3.27273H88.5916V12H87.2507V10.5227H87.1598C86.9553 10.9659 86.6371 11.3428 86.2053 11.6534C85.7734 11.9602 85.228 12.1136 84.5689 12.1136C84.0234 12.1136 83.5386 11.9943 83.1143 11.7557C82.6901 11.5133 82.3568 11.1496 82.1143 10.6648C81.8719 10.1761 81.7507 9.56061 81.7507 8.81818V3.27273H83.0916V8.72727C83.0916 9.36364 83.2696 9.87121 83.6257 10.25C83.9856 10.6288 84.4439 10.8182 85.0007 10.8182C85.334 10.8182 85.6731 10.733 86.0178 10.5625C86.3662 10.392 86.6579 10.1307 86.8928 9.77841C87.1314 9.42614 87.2507 8.97727 87.2507 8.43182ZM94.843 3.27273V4.40909H90.3203V3.27273H94.843ZM91.6385 1.18182H92.9794V9.5C92.9794 9.87879 93.0343 10.1629 93.1442 10.3523C93.2578 10.5379 93.4018 10.6629 93.576 10.7273C93.754 10.7879 93.9415 10.8182 94.1385 10.8182C94.2862 10.8182 94.4074 10.8106 94.5021 10.7955C94.5968 10.7765 94.6726 10.7614 94.7294 10.75L95.0021 11.9545C94.9112 11.9886 94.7843 12.0227 94.6214 12.0568C94.4586 12.0947 94.2521 12.1136 94.0021 12.1136C93.6233 12.1136 93.2521 12.0322 92.8885 11.8693C92.5286 11.7064 92.2294 11.4583 91.9908 11.125C91.7559 10.7917 91.6385 10.3712 91.6385 9.86364V1.18182ZM96.8601 12V3.27273H98.1555V4.59091H98.2464C98.4055 4.15909 98.6934 3.80871 99.1101 3.53977C99.5268 3.27083 99.9964 3.13636 100.519 3.13636C100.618 3.13636 100.741 3.13826 100.888 3.14205C101.036 3.14583 101.148 3.15152 101.224 3.15909V4.52273C101.178 4.51136 101.074 4.49432 100.911 4.47159C100.752 4.44508 100.584 4.43182 100.406 4.43182C99.9813 4.43182 99.6025 4.52083 99.2692 4.69886C98.9396 4.87311 98.6783 5.11553 98.4851 5.42614C98.2957 5.73295 98.201 6.08333 98.201 6.47727V12H96.8601ZM102.813 12V3.27273H104.154V12H102.813ZM103.495 1.81818C103.234 1.81818 103.008 1.72917 102.819 1.55114C102.633 1.37311 102.54 1.15909 102.54 0.909091C102.54 0.659091 102.633 0.445076 102.819 0.267045C103.008 0.089015 103.234 0 103.495 0C103.756 0 103.98 0.089015 104.165 0.267045C104.355 0.445076 104.45 0.659091 104.45 0.909091C104.45 1.15909 104.355 1.37311 104.165 1.55114C103.98 1.72917 103.756 1.81818 103.495 1.81818ZM110.406 3.27273V4.40909H105.883V3.27273H110.406ZM107.201 1.18182H108.542V9.5C108.542 9.87879 108.597 10.1629 108.707 10.3523C108.82 10.5379 108.964 10.6629 109.138 10.7273C109.317 10.7879 109.504 10.8182 109.701 10.8182C109.849 10.8182 109.97 10.8106 110.065 10.7955C110.159 10.7765 110.235 10.7614 110.292 10.75L110.565 11.9545C110.474 11.9886 110.347 12.0227 110.184 12.0568C110.021 12.0947 109.815 12.1136 109.565 12.1136C109.186 12.1136 108.815 12.0322 108.451 11.8693C108.091 11.7064 107.792 11.4583 107.553 11.125C107.318 10.7917 107.201 10.3712 107.201 9.86364V1.18182ZM112.423 12V3.27273H113.763V12H112.423ZM113.104 1.81818C112.843 1.81818 112.618 1.72917 112.428 1.55114C112.243 1.37311 112.15 1.15909 112.15 0.909091C112.15 0.659091 112.243 0.445076 112.428 0.267045C112.618 0.089015 112.843 0 113.104 0C113.366 0 113.589 0.089015 113.775 0.267045C113.964 0.445076 114.059 0.659091 114.059 0.909091C114.059 1.15909 113.964 1.37311 113.775 1.55114C113.589 1.72917 113.366 1.81818 113.104 1.81818ZM119.765 12.1818C118.977 12.1818 118.286 11.9943 117.691 11.6193C117.1 11.2443 116.638 10.7197 116.305 10.0455C115.975 9.37121 115.81 8.58333 115.81 7.68182C115.81 6.77273 115.975 5.97917 116.305 5.30114C116.638 4.62311 117.1 4.09659 117.691 3.72159C118.286 3.34659 118.977 3.15909 119.765 3.15909C120.553 3.15909 121.242 3.34659 121.833 3.72159C122.428 4.09659 122.89 4.62311 123.219 5.30114C123.553 5.97917 123.719 6.77273 123.719 7.68182C123.719 8.58333 123.553 9.37121 123.219 10.0455C122.89 10.7197 122.428 11.2443 121.833 11.6193C121.242 11.9943 120.553 12.1818 119.765 12.1818ZM119.765 10.9773C120.363 10.9773 120.856 10.8239 121.242 10.517C121.629 10.2102 121.915 9.80682 122.1 9.30682C122.286 8.80682 122.379 8.26515 122.379 7.68182C122.379 7.09848 122.286 6.55492 122.1 6.05114C121.915 5.54735 121.629 5.14015 121.242 4.82955C120.856 4.51894 120.363 4.36364 119.765 4.36364C119.166 4.36364 118.674 4.51894 118.288 4.82955C117.901 5.14015 117.615 5.54735 117.43 6.05114C117.244 6.55492 117.151 7.09848 117.151 7.68182C117.151 8.26515 117.244 8.80682 117.43 9.30682C117.615 9.80682 117.901 10.2102 118.288 10.517C118.674 10.8239 119.166 10.9773 119.765 10.9773ZM127.107 6.75V12H125.766V3.27273H127.062V4.63636H127.175C127.38 4.19318 127.691 3.83712 128.107 3.56818C128.524 3.29545 129.062 3.15909 129.721 3.15909C130.312 3.15909 130.829 3.2803 131.272 3.52273C131.715 3.76136 132.06 4.125 132.306 4.61364C132.552 5.09848 132.675 5.71212 132.675 6.45455V12H131.335V6.54545C131.335 5.85985 131.156 5.32576 130.8 4.94318C130.444 4.55682 129.956 4.36364 129.335 4.36364C128.906 4.36364 128.524 4.45644 128.187 4.64205C127.853 4.82765 127.59 5.09848 127.397 5.45455C127.204 5.81061 127.107 6.24242 127.107 6.75ZM137.694 12.2045C137.141 12.2045 136.639 12.1004 136.188 11.892C135.737 11.6799 135.379 11.375 135.114 10.9773C134.849 10.5758 134.717 10.0909 134.717 9.52273C134.717 9.02273 134.815 8.61742 135.012 8.30682C135.209 7.99242 135.472 7.74621 135.802 7.56818C136.131 7.39015 136.495 7.25758 136.893 7.17045C137.294 7.07955 137.698 7.00758 138.103 6.95455C138.633 6.88636 139.063 6.83523 139.393 6.80114C139.726 6.76326 139.969 6.70076 140.12 6.61364C140.275 6.52652 140.353 6.375 140.353 6.15909V6.11364C140.353 5.55303 140.2 5.11742 139.893 4.80682C139.59 4.49621 139.129 4.34091 138.512 4.34091C137.872 4.34091 137.37 4.48106 137.006 4.76136C136.643 5.04167 136.387 5.34091 136.239 5.65909L134.967 5.20455C135.194 4.67424 135.497 4.26136 135.876 3.96591C136.258 3.66667 136.675 3.45833 137.126 3.34091C137.58 3.2197 138.027 3.15909 138.467 3.15909C138.747 3.15909 139.069 3.19318 139.433 3.26136C139.8 3.32576 140.154 3.46023 140.495 3.66477C140.84 3.86932 141.126 4.17803 141.353 4.59091C141.58 5.00379 141.694 5.55682 141.694 6.25V12H140.353V10.8182H140.285C140.194 11.0076 140.042 11.2102 139.83 11.4261C139.618 11.642 139.336 11.8258 138.984 11.9773C138.631 12.1288 138.201 12.2045 137.694 12.2045ZM137.898 11C138.429 11 138.876 10.8958 139.239 10.6875C139.607 10.4792 139.883 10.2102 140.069 9.88068C140.258 9.55114 140.353 9.20455 140.353 8.84091V7.61364C140.296 7.68182 140.171 7.74432 139.978 7.80114C139.789 7.85417 139.569 7.90151 139.319 7.94318C139.073 7.98106 138.832 8.01515 138.597 8.04545C138.366 8.07197 138.179 8.0947 138.035 8.11364C137.686 8.15909 137.361 8.23295 137.058 8.33523C136.758 8.43371 136.516 8.58333 136.33 8.78409C136.148 8.98106 136.058 9.25 136.058 9.59091C136.058 10.0568 136.23 10.4091 136.575 10.6477C136.923 10.8826 137.364 11 137.898 11ZM145.482 0.363636V12H144.141V0.363636H145.482ZM154.12 5.22727L152.915 5.56818C152.84 5.36742 152.728 5.17235 152.58 4.98295C152.436 4.78977 152.239 4.63068 151.989 4.50568C151.739 4.38068 151.419 4.31818 151.029 4.31818C150.495 4.31818 150.05 4.44129 149.694 4.6875C149.342 4.92992 149.165 5.23864 149.165 5.61364C149.165 5.94697 149.287 6.21023 149.529 6.40341C149.772 6.59659 150.15 6.75758 150.665 6.88636L151.961 7.20455C152.741 7.39394 153.323 7.68371 153.705 8.07386C154.088 8.46023 154.279 8.95833 154.279 9.56818C154.279 10.0682 154.135 10.5152 153.847 10.9091C153.563 11.303 153.165 11.6136 152.654 11.8409C152.143 12.0682 151.548 12.1818 150.87 12.1818C149.98 12.1818 149.243 11.9886 148.66 11.6023C148.076 11.2159 147.707 10.6515 147.552 9.90909L148.825 9.59091C148.946 10.0606 149.175 10.4129 149.512 10.6477C149.853 10.8826 150.298 11 150.847 11C151.472 11 151.969 10.8674 152.336 10.6023C152.707 10.3333 152.893 10.0114 152.893 9.63636C152.893 9.33333 152.787 9.07955 152.575 8.875C152.362 8.66667 152.037 8.51136 151.597 8.40909L150.143 8.06818C149.344 7.87879 148.756 7.58523 148.381 7.1875C148.01 6.78598 147.825 6.28409 147.825 5.68182C147.825 5.18939 147.963 4.75379 148.239 4.375C148.52 3.99621 148.9 3.69886 149.381 3.48295C149.866 3.26705 150.415 3.15909 151.029 3.15909C151.893 3.15909 152.571 3.34848 153.063 3.72727C153.559 4.10606 153.912 4.60606 154.12 5.22727ZM163.366 12.2045C162.813 12.2045 162.311 12.1004 161.86 11.892C161.409 11.6799 161.051 11.375 160.786 10.9773C160.521 10.5758 160.388 10.0909 160.388 9.52273C160.388 9.02273 160.487 8.61742 160.684 8.30682C160.881 7.99242 161.144 7.74621 161.474 7.56818C161.803 7.39015 162.167 7.25758 162.565 7.17045C162.966 7.07955 163.37 7.00758 163.775 6.95455C164.305 6.88636 164.735 6.83523 165.065 6.80114C165.398 6.76326 165.64 6.70076 165.792 6.61364C165.947 6.52652 166.025 6.375 166.025 6.15909V6.11364C166.025 5.55303 165.871 5.11742 165.565 4.80682C165.262 4.49621 164.801 4.34091 164.184 4.34091C163.544 4.34091 163.042 4.48106 162.678 4.76136C162.315 5.04167 162.059 5.34091 161.911 5.65909L160.638 5.20455C160.866 4.67424 161.169 4.26136 161.548 3.96591C161.93 3.66667 162.347 3.45833 162.798 3.34091C163.252 3.2197 163.699 3.15909 164.138 3.15909C164.419 3.15909 164.741 3.19318 165.104 3.26136C165.472 3.32576 165.826 3.46023 166.167 3.66477C166.512 3.86932 166.798 4.17803 167.025 4.59091C167.252 5.00379 167.366 5.55682 167.366 6.25V12H166.025V10.8182H165.957C165.866 11.0076 165.714 11.2102 165.502 11.4261C165.29 11.642 165.008 11.8258 164.656 11.9773C164.303 12.1288 163.873 12.2045 163.366 12.2045ZM163.57 11C164.101 11 164.548 10.8958 164.911 10.6875C165.279 10.4792 165.555 10.2102 165.741 9.88068C165.93 9.55114 166.025 9.20455 166.025 8.84091V7.61364C165.968 7.68182 165.843 7.74432 165.65 7.80114C165.46 7.85417 165.241 7.90151 164.991 7.94318C164.745 7.98106 164.504 8.01515 164.269 8.04545C164.038 8.07197 163.851 8.0947 163.707 8.11364C163.358 8.15909 163.032 8.23295 162.729 8.33523C162.43 8.43371 162.188 8.58333 162.002 8.78409C161.82 8.98106 161.729 9.25 161.729 9.59091C161.729 10.0568 161.902 10.4091 162.246 10.6477C162.595 10.8826 163.036 11 163.57 11ZM171.154 6.75V12H169.813V3.27273H171.109V4.63636H171.222C171.427 4.19318 171.737 3.83712 172.154 3.56818C172.571 3.29545 173.109 3.15909 173.768 3.15909C174.359 3.15909 174.876 3.2803 175.319 3.52273C175.762 3.76136 176.107 4.125 176.353 4.61364C176.599 5.09848 176.722 5.71212 176.722 6.45455V12H175.381V6.54545C175.381 5.85985 175.203 5.32576 174.847 4.94318C174.491 4.55682 174.003 4.36364 173.381 4.36364C172.953 4.36364 172.571 4.45644 172.234 4.64205C171.9 4.82765 171.637 5.09848 171.444 5.45455C171.251 5.81061 171.154 6.24242 171.154 6.75ZM182.468 12.1818C181.741 12.1818 181.099 11.9981 180.542 11.6307C179.985 11.2595 179.549 10.7367 179.235 10.0625C178.921 9.38447 178.763 8.58333 178.763 7.65909C178.763 6.74242 178.921 5.94697 179.235 5.27273C179.549 4.59848 179.987 4.07765 180.548 3.71023C181.108 3.3428 181.756 3.15909 182.491 3.15909C183.059 3.15909 183.508 3.25379 183.837 3.44318C184.171 3.62879 184.424 3.84091 184.599 4.07955C184.777 4.31439 184.915 4.50758 185.013 4.65909H185.127V0.363636H186.468V12H185.173V10.6591H185.013C184.915 10.8182 184.775 11.0189 184.593 11.2614C184.411 11.5 184.152 11.714 183.815 11.9034C183.478 12.089 183.029 12.1818 182.468 12.1818ZM182.65 10.9773C183.188 10.9773 183.642 10.8371 184.013 10.5568C184.385 10.2727 184.667 9.88068 184.86 9.38068C185.053 8.87689 185.15 8.29545 185.15 7.63636C185.15 6.98485 185.055 6.41477 184.866 5.92614C184.676 5.43371 184.396 5.05114 184.025 4.77841C183.654 4.50189 183.195 4.36364 182.65 4.36364C182.082 4.36364 181.608 4.50947 181.229 4.80114C180.854 5.08902 180.572 5.48106 180.383 5.97727C180.197 6.4697 180.104 7.02273 180.104 7.63636C180.104 8.25758 180.199 8.82197 180.388 9.32955C180.582 9.83333 180.866 10.2348 181.241 10.5341C181.62 10.8295 182.089 10.9773 182.65 10.9773ZM194.269 12H192.792L197.065 0.363636H198.519L202.792 12H201.315L197.837 2.20455H197.746L194.269 12ZM194.815 7.45455H200.769V8.70455H194.815V7.45455ZM205.763 0.363636V12H204.423V0.363636H205.763ZM209.56 0.363636V12H208.219V0.363636H209.56ZM215.675 12.1818C214.835 12.1818 214.109 11.9962 213.499 11.625C212.893 11.25 212.425 10.7273 212.096 10.0568C211.77 9.38258 211.607 8.59848 211.607 7.70455C211.607 6.81061 211.77 6.02273 212.096 5.34091C212.425 4.6553 212.884 4.12121 213.471 3.73864C214.062 3.35227 214.751 3.15909 215.539 3.15909C215.994 3.15909 216.442 3.23485 216.886 3.38636C217.329 3.53788 217.732 3.78409 218.096 4.125C218.46 4.46212 218.749 4.90909 218.965 5.46591C219.181 6.02273 219.289 6.70833 219.289 7.52273V8.09091H212.562V6.93182H217.925C217.925 6.43939 217.827 6 217.63 5.61364C217.437 5.22727 217.16 4.92235 216.8 4.69886C216.444 4.47538 216.024 4.36364 215.539 4.36364C215.005 4.36364 214.543 4.49621 214.153 4.76136C213.766 5.02273 213.469 5.36364 213.261 5.78409C213.052 6.20455 212.948 6.6553 212.948 7.13636V7.90909C212.948 8.56818 213.062 9.12689 213.289 9.58523C213.52 10.0398 213.84 10.3864 214.249 10.625C214.658 10.8598 215.134 10.9773 215.675 10.9773C216.028 10.9773 216.346 10.928 216.63 10.8295C216.918 10.7273 217.166 10.5758 217.374 10.375C217.583 10.1705 217.744 9.91667 217.857 9.61364L219.153 9.97727C219.016 10.4167 218.787 10.803 218.465 11.1364C218.143 11.4659 217.746 11.7235 217.272 11.9091C216.799 12.0909 216.266 12.1818 215.675 12.1818ZM221.329 12V3.27273H222.624V4.59091H222.715C222.874 4.15909 223.162 3.80871 223.579 3.53977C223.996 3.27083 224.465 3.13636 224.988 3.13636C225.086 3.13636 225.21 3.13826 225.357 3.14205C225.505 3.14583 225.617 3.15152 225.692 3.15909V4.52273C225.647 4.51136 225.543 4.49432 225.38 4.47159C225.221 4.44508 225.052 4.43182 224.874 4.43182C224.45 4.43182 224.071 4.52083 223.738 4.69886C223.408 4.87311 223.147 5.11553 222.954 5.42614C222.764 5.73295 222.67 6.08333 222.67 6.47727V12H221.329ZM230.539 15.4545C229.891 15.4545 229.335 15.3712 228.869 15.2045C228.403 15.0417 228.014 14.8258 227.704 14.5568C227.397 14.2917 227.153 14.0076 226.971 13.7045L228.039 12.9545C228.16 13.1136 228.314 13.2955 228.499 13.5C228.685 13.7083 228.939 13.8883 229.261 14.0398C229.586 14.1951 230.013 14.2727 230.539 14.2727C231.244 14.2727 231.825 14.1023 232.283 13.7614C232.742 13.4205 232.971 12.8864 232.971 12.1591V10.3864H232.857C232.759 10.5455 232.619 10.7424 232.437 10.9773C232.259 11.2083 232.001 11.4148 231.664 11.5966C231.331 11.7746 230.88 11.8636 230.312 11.8636C229.607 11.8636 228.975 11.697 228.414 11.3636C227.857 11.0303 227.416 10.5455 227.09 9.90909C226.768 9.27273 226.607 8.5 226.607 7.59091C226.607 6.69697 226.764 5.91856 227.079 5.25568C227.393 4.58901 227.831 4.07386 228.391 3.71023C228.952 3.3428 229.6 3.15909 230.335 3.15909C230.903 3.15909 231.353 3.25379 231.687 3.44318C232.024 3.62879 232.281 3.84091 232.46 4.07955C232.641 4.31439 232.781 4.50758 232.88 4.65909H233.016V3.27273H234.312V12.25C234.312 13 234.141 13.6098 233.8 14.0795C233.463 14.553 233.009 14.8996 232.437 15.1193C231.869 15.3428 231.236 15.4545 230.539 15.4545ZM230.494 10.6591C231.031 10.6591 231.486 10.536 231.857 10.2898C232.228 10.0436 232.511 9.68939 232.704 9.22727C232.897 8.76515 232.994 8.21212 232.994 7.56818C232.994 6.93939 232.899 6.38447 232.71 5.90341C232.52 5.42235 232.24 5.04545 231.869 4.77273C231.497 4.5 231.039 4.36364 230.494 4.36364C229.925 4.36364 229.452 4.50758 229.073 4.79545C228.698 5.08333 228.416 5.4697 228.227 5.95455C228.041 6.43939 227.948 6.97727 227.948 7.56818C227.948 8.17424 228.043 8.71023 228.232 9.17614C228.425 9.63826 228.71 10.0019 229.085 10.267C229.463 10.5284 229.933 10.6591 230.494 10.6591ZM240.425 12.1818C239.585 12.1818 238.859 11.9962 238.249 11.625C237.643 11.25 237.175 10.7273 236.846 10.0568C236.52 9.38258 236.357 8.59848 236.357 7.70455C236.357 6.81061 236.52 6.02273 236.846 5.34091C237.175 4.6553 237.634 4.12121 238.221 3.73864C238.812 3.35227 239.501 3.15909 240.289 3.15909C240.744 3.15909 241.192 3.23485 241.636 3.38636C242.079 3.53788 242.482 3.78409 242.846 4.125C243.21 4.46212 243.499 4.90909 243.715 5.46591C243.931 6.02273 244.039 6.70833 244.039 7.52273V8.09091H237.312V6.93182H242.675C242.675 6.43939 242.577 6 242.38 5.61364C242.187 5.22727 241.91 4.92235 241.55 4.69886C241.194 4.47538 240.774 4.36364 240.289 4.36364C239.755 4.36364 239.293 4.49621 238.903 4.76136C238.516 5.02273 238.219 5.36364 238.011 5.78409C237.802 6.20455 237.698 6.6553 237.698 7.13636V7.90909C237.698 8.56818 237.812 9.12689 238.039 9.58523C238.27 10.0398 238.59 10.3864 238.999 10.625C239.408 10.8598 239.884 10.9773 240.425 10.9773C240.778 10.9773 241.096 10.928 241.38 10.8295C241.668 10.7273 241.916 10.5758 242.124 10.375C242.333 10.1705 242.494 9.91667 242.607 9.61364L243.903 9.97727C243.766 10.4167 243.537 10.803 243.215 11.1364C242.893 11.4659 242.496 11.7235 242.022 11.9091C241.549 12.0909 241.016 12.1818 240.425 12.1818ZM247.42 6.75V12H246.079V3.27273H247.374V4.63636H247.488C247.692 4.19318 248.003 3.83712 248.42 3.56818C248.836 3.29545 249.374 3.15909 250.033 3.15909C250.624 3.15909 251.141 3.2803 251.585 3.52273C252.028 3.76136 252.372 4.125 252.619 4.61364C252.865 5.09848 252.988 5.71212 252.988 6.45455V12H251.647V6.54545C251.647 5.85985 251.469 5.32576 251.113 4.94318C250.757 4.55682 250.268 4.36364 249.647 4.36364C249.219 4.36364 248.836 4.45644 248.499 4.64205C248.166 4.82765 247.903 5.09848 247.71 5.45455C247.516 5.81061 247.42 6.24242 247.42 6.75ZM261.62 5.22727L260.415 5.56818C260.34 5.36742 260.228 5.17235 260.08 4.98295C259.936 4.78977 259.739 4.63068 259.489 4.50568C259.239 4.38068 258.919 4.31818 258.529 4.31818C257.995 4.31818 257.55 4.44129 257.194 4.6875C256.842 4.92992 256.665 5.23864 256.665 5.61364C256.665 5.94697 256.787 6.21023 257.029 6.40341C257.272 6.59659 257.65 6.75758 258.165 6.88636L259.461 7.20455C260.241 7.39394 260.823 7.68371 261.205 8.07386C261.588 8.46023 261.779 8.95833 261.779 9.56818C261.779 10.0682 261.635 10.5152 261.347 10.9091C261.063 11.303 260.665 11.6136 260.154 11.8409C259.643 12.0682 259.048 12.1818 258.37 12.1818C257.48 12.1818 256.743 11.9886 256.16 11.6023C255.576 11.2159 255.207 10.6515 255.052 9.90909L256.325 9.59091C256.446 10.0606 256.675 10.4129 257.012 10.6477C257.353 10.8826 257.798 11 258.347 11C258.972 11 259.469 10.8674 259.836 10.6023C260.207 10.3333 260.393 10.0114 260.393 9.63636C260.393 9.33333 260.287 9.07955 260.075 8.875C259.862 8.66667 259.537 8.51136 259.097 8.40909L257.643 8.06818C256.844 7.87879 256.256 7.58523 255.881 7.1875C255.51 6.78598 255.325 6.28409 255.325 5.68182C255.325 5.18939 255.463 4.75379 255.739 4.375C256.02 3.99621 256.4 3.69886 256.881 3.48295C257.366 3.26705 257.915 3.15909 258.529 3.15909C259.393 3.15909 260.071 3.34848 260.563 3.72727C261.059 4.10606 261.412 4.60606 261.62 5.22727Z" fill="#FCC21B"/>
</svg>
