<svg width="89" height="19" viewBox="0 0 89 19" fill="none" xmlns="http://www.w3.org/2000/svg">
<path d="M15.1591 6H13.0455C12.9205 5.39205 12.7017 4.85795 12.3892 4.39773C12.0824 3.9375 11.7074 3.55114 11.2642 3.23864C10.8267 2.92045 10.3409 2.68182 9.80682 2.52273C9.27273 2.36364 8.71591 2.28409 8.13636 2.28409C7.07955 2.28409 6.12216 2.55114 5.2642 3.08523C4.41193 3.61932 3.73295 4.40625 3.22727 5.44602C2.72727 6.4858 2.47727 7.76136 2.47727 9.27273C2.47727 10.7841 2.72727 12.0597 3.22727 13.0994C3.73295 14.1392 4.41193 14.9261 5.2642 15.4602C6.12216 15.9943 7.07955 16.2614 8.13636 16.2614C8.71591 16.2614 9.27273 16.1818 9.80682 16.0227C10.3409 15.8636 10.8267 15.6278 11.2642 15.3153C11.7074 14.9972 12.0824 14.608 12.3892 14.1477C12.7017 13.6818 12.9205 13.1477 13.0455 12.5455H15.1591C15 13.4375 14.7102 14.2358 14.2898 14.9403C13.8693 15.6449 13.3466 16.2443 12.7216 16.7386C12.0966 17.2273 11.3949 17.5994 10.6165 17.8551C9.84375 18.1108 9.01705 18.2386 8.13636 18.2386C6.64773 18.2386 5.32386 17.875 4.16477 17.1477C3.00568 16.4205 2.09375 15.3864 1.42898 14.0455C0.764205 12.7045 0.431818 11.1136 0.431818 9.27273C0.431818 7.43182 0.764205 5.84091 1.42898 4.5C2.09375 3.15909 3.00568 2.125 4.16477 1.39773C5.32386 0.670454 6.64773 0.306818 8.13636 0.306818C9.01705 0.306818 9.84375 0.434659 10.6165 0.690341C11.3949 0.946023 12.0966 1.32102 12.7216 1.81534C13.3466 2.30398 13.8693 2.90057 14.2898 3.60511C14.7102 4.30398 15 5.10227 15.1591 6ZM23.62 18.2727C22.4382 18.2727 21.4013 17.9915 20.5092 17.429C19.6229 16.8665 18.9297 16.0795 18.4297 15.0682C17.9354 14.0568 17.6882 12.875 17.6882 11.5227C17.6882 10.1591 17.9354 8.96875 18.4297 7.9517C18.9297 6.93466 19.6229 6.14489 20.5092 5.58239C21.4013 5.01989 22.4382 4.73864 23.62 4.73864C24.8018 4.73864 25.8359 5.01989 26.7223 5.58239C27.6143 6.14489 28.3075 6.93466 28.8018 7.9517C29.3018 8.96875 29.5518 10.1591 29.5518 11.5227C29.5518 12.875 29.3018 14.0568 28.8018 15.0682C28.3075 16.0795 27.6143 16.8665 26.7223 17.429C25.8359 17.9915 24.8018 18.2727 23.62 18.2727ZM23.62 16.4659C24.5178 16.4659 25.2564 16.2358 25.8359 15.7756C26.4155 15.3153 26.8445 14.7102 27.1229 13.9602C27.4013 13.2102 27.5405 12.3977 27.5405 11.5227C27.5405 10.6477 27.4013 9.83239 27.1229 9.0767C26.8445 8.32102 26.4155 7.71023 25.8359 7.24432C25.2564 6.77841 24.5178 6.54545 23.62 6.54545C22.7223 6.54545 21.9837 6.77841 21.4041 7.24432C20.8246 7.71023 20.3956 8.32102 20.1172 9.0767C19.8388 9.83239 19.6996 10.6477 19.6996 11.5227C19.6996 12.3977 19.8388 13.2102 20.1172 13.9602C20.3956 14.7102 20.8246 15.3153 21.4041 15.7756C21.9837 16.2358 22.7223 16.4659 23.62 16.4659ZM34.6335 10.125V18H32.6222V4.90909H34.5653V6.95455H34.7358C35.0426 6.28977 35.5085 5.75568 36.1335 5.35227C36.7585 4.94318 37.5653 4.73864 38.554 4.73864C39.4403 4.73864 40.2159 4.92045 40.8807 5.28409C41.5455 5.64205 42.0625 6.1875 42.4318 6.92045C42.8011 7.64773 42.9858 8.56818 42.9858 9.68182V18H40.9744V9.81818C40.9744 8.78977 40.7074 7.98864 40.1733 7.41477C39.6392 6.83523 38.9063 6.54545 37.9744 6.54545C37.3324 6.54545 36.7585 6.68466 36.2528 6.96307C35.7528 7.24148 35.358 7.64773 35.0682 8.18182C34.7784 8.71591 34.6335 9.36364 34.6335 10.125ZM52.3544 4.90909V6.61364H45.5703V4.90909H52.3544ZM47.5476 1.77273H49.5589V14.25C49.5589 14.8182 49.6413 15.2443 49.8061 15.5284C49.9766 15.8068 50.1925 15.9943 50.4538 16.0909C50.7209 16.1818 51.0021 16.2273 51.2976 16.2273C51.5192 16.2273 51.701 16.2159 51.843 16.1932C51.9851 16.1648 52.0987 16.142 52.1839 16.125L52.593 17.9318C52.4567 17.983 52.2663 18.0341 52.022 18.0852C51.7777 18.142 51.468 18.1705 51.093 18.1705C50.5249 18.1705 49.968 18.0483 49.4226 17.804C48.8828 17.5597 48.4339 17.1875 48.076 16.6875C47.7237 16.1875 47.5476 15.5568 47.5476 14.7955V1.77273ZM59.2322 18.3068C58.4027 18.3068 57.6499 18.1506 56.9737 17.8381C56.2976 17.5199 55.7607 17.0625 55.3629 16.4659C54.9652 15.8636 54.7663 15.1364 54.7663 14.2841C54.7663 13.5341 54.9141 12.9261 55.2095 12.4602C55.505 11.9886 55.8999 11.6193 56.3942 11.3523C56.8885 11.0852 57.4339 10.8864 58.0305 10.7557C58.6328 10.6193 59.2379 10.5114 59.8459 10.4318C60.6413 10.3295 61.2862 10.2528 61.7805 10.2017C62.2805 10.1449 62.6442 10.0511 62.8714 9.92045C63.1044 9.78977 63.2209 9.5625 63.2209 9.23864V9.17045C63.2209 8.32955 62.9908 7.67614 62.5305 7.21023C62.076 6.74432 61.3857 6.51136 60.4595 6.51136C59.4993 6.51136 58.7464 6.72159 58.201 7.14205C57.6555 7.5625 57.272 8.01136 57.0504 8.48864L55.1413 7.80682C55.4822 7.01136 55.9368 6.39205 56.505 5.94886C57.0788 5.5 57.7038 5.1875 58.38 5.01136C59.0618 4.82955 59.7322 4.73864 60.3913 4.73864C60.8118 4.73864 61.2947 4.78977 61.8402 4.89204C62.3913 4.98864 62.9226 5.19034 63.4339 5.49716C63.951 5.80398 64.38 6.26705 64.7209 6.88636C65.0618 7.50568 65.2322 8.33523 65.2322 9.375V18H63.2209V16.2273H63.1186C62.9822 16.5114 62.755 16.8153 62.4368 17.1392C62.1186 17.4631 61.6953 17.7386 61.1669 17.9659C60.6385 18.1932 59.9936 18.3068 59.2322 18.3068ZM59.5391 16.5C60.3345 16.5 61.005 16.3438 61.5504 16.0312C62.1016 15.7188 62.5163 15.3153 62.7947 14.821C63.0788 14.3267 63.2209 13.8068 63.2209 13.2614V11.4205C63.1357 11.5227 62.9482 11.6165 62.6584 11.7017C62.3743 11.7812 62.0447 11.8523 61.6697 11.9148C61.3004 11.9716 60.9396 12.0227 60.5874 12.0682C60.2408 12.108 59.9595 12.142 59.7436 12.1705C59.2209 12.2386 58.7322 12.3494 58.2777 12.5028C57.8288 12.6506 57.4652 12.875 57.1868 13.1761C56.9141 13.4716 56.7777 13.875 56.7777 14.3864C56.7777 15.0852 57.0362 15.6136 57.5533 15.9716C58.076 16.3239 58.7379 16.5 59.5391 16.5ZM74.2216 18.2727C72.9943 18.2727 71.9375 17.983 71.0511 17.4034C70.1648 16.8239 69.483 16.0256 69.0057 15.0085C68.5284 13.9915 68.2898 12.8295 68.2898 11.5227C68.2898 10.1932 68.5341 9.01989 69.0227 8.00284C69.517 6.98011 70.2045 6.18182 71.0852 5.60795C71.9716 5.02841 73.0057 4.73864 74.1875 4.73864C75.108 4.73864 75.9375 4.90909 76.6761 5.25C77.4148 5.59091 78.0199 6.06818 78.4915 6.68182C78.9631 7.29545 79.2557 8.01136 79.3693 8.82955H77.358C77.2045 8.23295 76.8636 7.70455 76.3352 7.24432C75.8125 6.77841 75.108 6.54545 74.2216 6.54545C73.4375 6.54545 72.75 6.75 72.1591 7.15909C71.5739 7.5625 71.1165 8.13352 70.7869 8.87216C70.4631 9.60511 70.3011 10.4659 70.3011 11.4545C70.3011 12.4659 70.4602 13.3466 70.7784 14.0966C71.1023 14.8466 71.5568 15.429 72.142 15.8438C72.733 16.2585 73.4261 16.4659 74.2216 16.4659C74.7443 16.4659 75.2188 16.375 75.6449 16.1932C76.071 16.0114 76.4318 15.75 76.7273 15.4091C77.0227 15.0682 77.233 14.6591 77.358 14.1818H79.3693C79.2557 14.9545 78.9744 15.6506 78.5256 16.2699C78.0824 16.8835 77.4943 17.3722 76.7614 17.7358C76.0341 18.0938 75.1875 18.2727 74.2216 18.2727ZM88.0028 4.90909V6.61364H81.2188V4.90909H88.0028ZM83.196 1.77273H85.2074V14.25C85.2074 14.8182 85.2898 15.2443 85.4545 15.5284C85.625 15.8068 85.8409 15.9943 86.1023 16.0909C86.3693 16.1818 86.6506 16.2273 86.946 16.2273C87.1676 16.2273 87.3494 16.2159 87.4915 16.1932C87.6335 16.1648 87.7472 16.142 87.8324 16.125L88.2415 17.9318C88.1051 17.983 87.9148 18.0341 87.6705 18.0852C87.4261 18.142 87.1165 18.1705 86.7415 18.1705C86.1733 18.1705 85.6165 18.0483 85.071 17.804C84.5313 17.5597 84.0824 17.1875 83.7244 16.6875C83.3722 16.1875 83.196 15.5568 83.196 14.7955V1.77273Z" fill="#FCC21B"/>
</svg>
