<svg width="36" height="13" viewBox="0 0 36 13" fill="none" xmlns="http://www.w3.org/2000/svg">
<path d="M0.518466 12V0.363636H7.49574V1.61364H1.92756V5.54545H6.97301V6.79545H1.92756V12H0.518466ZM12.6321 12.1818C11.8442 12.1818 11.1529 11.9943 10.5582 11.6193C9.96733 11.2443 9.50521 10.7197 9.17188 10.0455C8.84233 9.37121 8.67756 8.58333 8.67756 7.68182C8.67756 6.77273 8.84233 5.97917 9.17188 5.30114C9.50521 4.62311 9.96733 4.09659 10.5582 3.72159C11.1529 3.34659 11.8442 3.15909 12.6321 3.15909C13.42 3.15909 14.1094 3.34659 14.7003 3.72159C15.295 4.09659 15.7571 4.62311 16.0866 5.30114C16.42 5.97917 16.5866 6.77273 16.5866 7.68182C16.5866 8.58333 16.42 9.37121 16.0866 10.0455C15.7571 10.7197 15.295 11.2443 14.7003 11.6193C14.1094 11.9943 13.42 12.1818 12.6321 12.1818ZM12.6321 10.9773C13.2306 10.9773 13.723 10.8239 14.1094 10.517C14.4957 10.2102 14.7817 9.80682 14.9673 9.30682C15.1529 8.80682 15.2457 8.26515 15.2457 7.68182C15.2457 7.09848 15.1529 6.55492 14.9673 6.05114C14.7817 5.54735 14.4957 5.14015 14.1094 4.82955C13.723 4.51894 13.2306 4.36364 12.6321 4.36364C12.0336 4.36364 11.5412 4.51894 11.1548 4.82955C10.7685 5.14015 10.4825 5.54735 10.2969 6.05114C10.1113 6.55492 10.0185 7.09848 10.0185 7.68182C10.0185 8.26515 10.1113 8.80682 10.2969 9.30682C10.4825 9.80682 10.7685 10.2102 11.1548 10.517C11.5412 10.8239 12.0336 10.9773 12.6321 10.9773ZM22.179 12.1818C21.3911 12.1818 20.6998 11.9943 20.1051 11.6193C19.5142 11.2443 19.0521 10.7197 18.7188 10.0455C18.3892 9.37121 18.2244 8.58333 18.2244 7.68182C18.2244 6.77273 18.3892 5.97917 18.7188 5.30114C19.0521 4.62311 19.5142 4.09659 20.1051 3.72159C20.6998 3.34659 21.3911 3.15909 22.179 3.15909C22.9669 3.15909 23.6563 3.34659 24.2472 3.72159C24.8419 4.09659 25.304 4.62311 25.6335 5.30114C25.9669 5.97917 26.1335 6.77273 26.1335 7.68182C26.1335 8.58333 25.9669 9.37121 25.6335 10.0455C25.304 10.7197 24.8419 11.2443 24.2472 11.6193C23.6563 11.9943 22.9669 12.1818 22.179 12.1818ZM22.179 10.9773C22.7775 10.9773 23.2699 10.8239 23.6562 10.517C24.0426 10.2102 24.3286 9.80682 24.5142 9.30682C24.6998 8.80682 24.7926 8.26515 24.7926 7.68182C24.7926 7.09848 24.6998 6.55492 24.5142 6.05114C24.3286 5.54735 24.0426 5.14015 23.6562 4.82955C23.2699 4.51894 22.7775 4.36364 22.179 4.36364C21.5805 4.36364 21.0881 4.51894 20.7017 4.82955C20.3153 5.14015 20.0294 5.54735 19.8438 6.05114C19.6581 6.55492 19.5653 7.09848 19.5653 7.68182C19.5653 8.26515 19.6581 8.80682 19.8438 9.30682C20.0294 9.80682 20.3153 10.2102 20.7017 10.517C21.0881 10.8239 21.5805 10.9773 22.179 10.9773ZM31.4759 12.1818C30.7486 12.1818 30.1065 11.9981 29.5497 11.6307C28.9929 11.2595 28.5573 10.7367 28.2429 10.0625C27.9285 9.38447 27.7713 8.58333 27.7713 7.65909C27.7713 6.74242 27.9285 5.94697 28.2429 5.27273C28.5573 4.59848 28.9948 4.07765 29.5554 3.71023C30.116 3.3428 30.7637 3.15909 31.4986 3.15909C32.0668 3.15909 32.5156 3.25379 32.8452 3.44318C33.1785 3.62879 33.4323 3.84091 33.6065 4.07955C33.7846 4.31439 33.9228 4.50758 34.0213 4.65909H34.1349V0.363636H35.4759V12H34.1804V10.6591H34.0213C33.9228 10.8182 33.7827 11.0189 33.6009 11.2614C33.419 11.5 33.1596 11.714 32.8224 11.9034C32.4853 12.089 32.0365 12.1818 31.4759 12.1818ZM31.6577 10.9773C32.1955 10.9773 32.6501 10.8371 33.0213 10.5568C33.3925 10.2727 33.6747 9.88068 33.8679 9.38068C34.0611 8.87689 34.1577 8.29545 34.1577 7.63636C34.1577 6.98485 34.063 6.41477 33.8736 5.92614C33.6842 5.43371 33.4039 5.05114 33.0327 4.77841C32.6615 4.50189 32.2031 4.36364 31.6577 4.36364C31.0895 4.36364 30.616 4.50947 30.2372 4.80114C29.8622 5.08902 29.58 5.48106 29.3906 5.97727C29.205 6.4697 29.1122 7.02273 29.1122 7.63636C29.1122 8.25758 29.2069 8.82197 29.3963 9.32955C29.5895 9.83333 29.8736 10.2348 30.2486 10.5341C30.6274 10.8295 31.0971 10.9773 31.6577 10.9773Z" fill="#FCC21B"/>
</svg>
