<svg width="125" height="13" viewBox="0 0 125 13" fill="none" xmlns="http://www.w3.org/2000/svg">
<path d="M8.73864 4C8.61364 3.61742 8.44886 3.27462 8.24432 2.97159C8.04356 2.66477 7.80303 2.40341 7.52273 2.1875C7.24621 1.97159 6.93182 1.80682 6.57955 1.69318C6.22727 1.57955 5.84091 1.52273 5.42045 1.52273C4.73106 1.52273 4.10417 1.70076 3.53977 2.05682C2.97538 2.41288 2.52652 2.9375 2.19318 3.63068C1.85985 4.32386 1.69318 5.17424 1.69318 6.18182C1.69318 7.18939 1.86174 8.03977 2.19886 8.73295C2.53598 9.42614 2.99242 9.95076 3.56818 10.3068C4.14394 10.6629 4.79167 10.8409 5.51136 10.8409C6.17803 10.8409 6.76515 10.6989 7.27273 10.4148C7.78409 10.1269 8.18182 9.72159 8.46591 9.19886C8.75379 8.67235 8.89773 8.05303 8.89773 7.34091L9.32955 7.43182H5.82955V6.18182H10.2614V7.43182C10.2614 8.39015 10.0568 9.22348 9.64773 9.93182C9.24242 10.6402 8.68182 11.1894 7.96591 11.5795C7.25379 11.9659 6.43561 12.1591 5.51136 12.1591C4.48106 12.1591 3.57576 11.9167 2.79545 11.4318C2.01894 10.947 1.41288 10.2576 0.977273 9.36364C0.545455 8.4697 0.329545 7.40909 0.329545 6.18182C0.329545 5.26136 0.452652 4.43371 0.698864 3.69886C0.948864 2.96023 1.30114 2.33144 1.75568 1.8125C2.21023 1.29356 2.74811 0.895833 3.36932 0.619318C3.99053 0.342803 4.67424 0.204545 5.42045 0.204545C6.03409 0.204545 6.60606 0.297348 7.13636 0.482954C7.67045 0.664772 8.14583 0.924242 8.5625 1.26136C8.98295 1.5947 9.33333 1.99432 9.61364 2.46023C9.89394 2.92235 10.0871 3.43561 10.1932 4H8.73864ZM16.0384 12.1818C15.2505 12.1818 14.5592 11.9943 13.9645 11.6193C13.3736 11.2443 12.9115 10.7197 12.5781 10.0455C12.2486 9.37121 12.0838 8.58333 12.0838 7.68182C12.0838 6.77273 12.2486 5.97917 12.5781 5.30114C12.9115 4.62311 13.3736 4.09659 13.9645 3.72159C14.5592 3.34659 15.2505 3.15909 16.0384 3.15909C16.8262 3.15909 17.5156 3.34659 18.1065 3.72159C18.7012 4.09659 19.1634 4.62311 19.4929 5.30114C19.8262 5.97917 19.9929 6.77273 19.9929 7.68182C19.9929 8.58333 19.8262 9.37121 19.4929 10.0455C19.1634 10.7197 18.7012 11.2443 18.1065 11.6193C17.5156 11.9943 16.8262 12.1818 16.0384 12.1818ZM16.0384 10.9773C16.6368 10.9773 17.1293 10.8239 17.5156 10.517C17.902 10.2102 18.188 9.80682 18.3736 9.30682C18.5592 8.80682 18.652 8.26515 18.652 7.68182C18.652 7.09848 18.5592 6.55492 18.3736 6.05114C18.188 5.54735 17.902 5.14015 17.5156 4.82955C17.1293 4.51894 16.6368 4.36364 16.0384 4.36364C15.4399 4.36364 14.9474 4.51894 14.5611 4.82955C14.1747 5.14015 13.8887 5.54735 13.7031 6.05114C13.5175 6.55492 13.4247 7.09848 13.4247 7.68182C13.4247 8.26515 13.5175 8.80682 13.7031 9.30682C13.8887 9.80682 14.1747 10.2102 14.5611 10.517C14.9474 10.8239 15.4399 10.9773 16.0384 10.9773ZM25.5852 12.1818C24.7973 12.1818 24.1061 11.9943 23.5114 11.6193C22.9205 11.2443 22.4583 10.7197 22.125 10.0455C21.7955 9.37121 21.6307 8.58333 21.6307 7.68182C21.6307 6.77273 21.7955 5.97917 22.125 5.30114C22.4583 4.62311 22.9205 4.09659 23.5114 3.72159C24.1061 3.34659 24.7973 3.15909 25.5852 3.15909C26.3731 3.15909 27.0625 3.34659 27.6534 3.72159C28.2481 4.09659 28.7102 4.62311 29.0398 5.30114C29.3731 5.97917 29.5398 6.77273 29.5398 7.68182C29.5398 8.58333 29.3731 9.37121 29.0398 10.0455C28.7102 10.7197 28.2481 11.2443 27.6534 11.6193C27.0625 11.9943 26.3731 12.1818 25.5852 12.1818ZM25.5852 10.9773C26.1837 10.9773 26.6761 10.8239 27.0625 10.517C27.4489 10.2102 27.7348 9.80682 27.9205 9.30682C28.1061 8.80682 28.1989 8.26515 28.1989 7.68182C28.1989 7.09848 28.1061 6.55492 27.9205 6.05114C27.7348 5.54735 27.4489 5.14015 27.0625 4.82955C26.6761 4.51894 26.1837 4.36364 25.5852 4.36364C24.9867 4.36364 24.4943 4.51894 24.108 4.82955C23.7216 5.14015 23.4356 5.54735 23.25 6.05114C23.0644 6.55492 22.9716 7.09848 22.9716 7.68182C22.9716 8.26515 23.0644 8.80682 23.25 9.30682C23.4356 9.80682 23.7216 10.2102 24.108 10.517C24.4943 10.8239 24.9867 10.9773 25.5852 10.9773ZM34.8821 12.1818C34.1548 12.1818 33.5128 11.9981 32.956 11.6307C32.3991 11.2595 31.9635 10.7367 31.6491 10.0625C31.3348 9.38447 31.1776 8.58333 31.1776 7.65909C31.1776 6.74242 31.3348 5.94697 31.6491 5.27273C31.9635 4.59848 32.401 4.07765 32.9616 3.71023C33.5223 3.3428 34.17 3.15909 34.9048 3.15909C35.473 3.15909 35.9219 3.25379 36.2514 3.44318C36.5848 3.62879 36.8385 3.84091 37.0128 4.07955C37.1908 4.31439 37.3291 4.50758 37.4276 4.65909H37.5412V0.363636H38.8821V12H37.5866V10.6591H37.4276C37.3291 10.8182 37.1889 11.0189 37.0071 11.2614C36.8253 11.5 36.5658 11.714 36.2287 11.9034C35.8916 12.089 35.4427 12.1818 34.8821 12.1818ZM35.0639 10.9773C35.6018 10.9773 36.0563 10.8371 36.4276 10.5568C36.7988 10.2727 37.081 9.88068 37.2741 9.38068C37.4673 8.87689 37.5639 8.29545 37.5639 7.63636C37.5639 6.98485 37.4692 6.41477 37.2798 5.92614C37.0904 5.43371 36.8101 5.05114 36.4389 4.77841C36.0677 4.50189 35.6094 4.36364 35.0639 4.36364C34.4957 4.36364 34.0223 4.50947 33.6435 4.80114C33.2685 5.08902 32.9863 5.48106 32.7969 5.97727C32.6113 6.4697 32.5185 7.02273 32.5185 7.63636C32.5185 8.25758 32.6132 8.82197 32.8026 9.32955C32.9957 9.83333 33.2798 10.2348 33.6548 10.5341C34.0336 10.8295 34.5033 10.9773 35.0639 10.9773ZM52.5696 3.27273C52.5014 2.69697 52.2249 2.25 51.7401 1.93182C51.2552 1.61364 50.6605 1.45455 49.956 1.45455C49.4408 1.45455 48.9901 1.53788 48.6037 1.70455C48.2211 1.87121 47.9219 2.10038 47.706 2.39205C47.4938 2.68371 47.3878 3.01515 47.3878 3.38636C47.3878 3.69697 47.4616 3.96401 47.6094 4.1875C47.7609 4.4072 47.9541 4.59091 48.1889 4.73864C48.4238 4.88258 48.67 5.00189 48.9276 5.09659C49.1851 5.1875 49.4219 5.26136 49.6378 5.31818L50.8196 5.63636C51.1226 5.71591 51.4598 5.82576 51.831 5.96591C52.206 6.10606 52.5639 6.29735 52.9048 6.53977C53.2495 6.77841 53.5336 7.08523 53.7571 7.46023C53.9806 7.83523 54.0923 8.29545 54.0923 8.84091C54.0923 9.4697 53.9276 10.0379 53.598 10.5455C53.2723 11.053 52.795 11.4564 52.1662 11.7557C51.5412 12.0549 50.7817 12.2045 49.8878 12.2045C49.0545 12.2045 48.3329 12.0701 47.723 11.8011C47.117 11.5322 46.6397 11.1572 46.2912 10.6761C45.9465 10.1951 45.7514 9.63636 45.706 9H47.1605C47.1984 9.43939 47.3461 9.80303 47.6037 10.0909C47.8651 10.375 48.1946 10.5871 48.5923 10.7273C48.9938 10.8636 49.4257 10.9318 49.8878 10.9318C50.4257 10.9318 50.9086 10.8447 51.3366 10.6705C51.7647 10.4924 52.1037 10.2462 52.3537 9.93182C52.6037 9.61364 52.7287 9.24242 52.7287 8.81818C52.7287 8.43182 52.6207 8.11742 52.4048 7.875C52.1889 7.63258 51.9048 7.43561 51.5526 7.28409C51.2003 7.13258 50.8196 7 50.4105 6.88636L48.9787 6.47727C48.0696 6.21591 47.3499 5.8428 46.8196 5.35795C46.2893 4.87311 46.0241 4.23864 46.0241 3.45455C46.0241 2.80303 46.2003 2.23485 46.5526 1.75C46.9086 1.26136 47.3859 0.882575 47.9844 0.613636C48.5866 0.340909 49.259 0.204545 50.0014 0.204545C50.7514 0.204545 51.4181 0.339015 52.0014 0.607954C52.5848 0.873105 53.0469 1.23674 53.3878 1.69886C53.7325 2.16098 53.9143 2.68561 53.9332 3.27273H52.5696ZM57.5682 0.363636V12H56.2273V0.363636H57.5682ZM60.0241 12V3.27273H61.3651V12H60.0241ZM60.706 1.81818C60.4446 1.81818 60.2192 1.72917 60.0298 1.55114C59.8442 1.37311 59.7514 1.15909 59.7514 0.909091C59.7514 0.659091 59.8442 0.445076 60.0298 0.267045C60.2192 0.089015 60.4446 0 60.706 0C60.9673 0 61.1908 0.089015 61.3764 0.267045C61.5658 0.445076 61.6605 0.659091 61.6605 0.909091C61.6605 1.15909 61.5658 1.37311 61.3764 1.55114C61.1908 1.72917 60.9673 1.81818 60.706 1.81818ZM67.3665 12.1818C66.5483 12.1818 65.8438 11.9886 65.2528 11.6023C64.6619 11.2159 64.2074 10.6837 63.8892 10.0057C63.571 9.32765 63.4119 8.55303 63.4119 7.68182C63.4119 6.79545 63.5748 6.01326 63.9006 5.33523C64.2301 4.65341 64.6884 4.12121 65.2756 3.73864C65.8665 3.35227 66.5559 3.15909 67.3438 3.15909C67.9574 3.15909 68.5104 3.27273 69.0028 3.5C69.4953 3.72727 69.8987 4.04545 70.2131 4.45455C70.5275 4.86364 70.7225 5.34091 70.7983 5.88636H69.4574C69.3551 5.48864 69.1278 5.13636 68.7756 4.82955C68.4271 4.51894 67.9574 4.36364 67.3665 4.36364C66.8438 4.36364 66.3854 4.5 65.9915 4.77273C65.6013 5.04167 65.2964 5.42235 65.0767 5.91477C64.8608 6.40341 64.7528 6.97727 64.7528 7.63636C64.7528 8.31061 64.8589 8.89773 65.071 9.39773C65.2869 9.89773 65.59 10.286 65.9801 10.5625C66.3741 10.839 66.8362 10.9773 67.3665 10.9773C67.715 10.9773 68.0312 10.9167 68.3153 10.7955C68.5994 10.6742 68.84 10.5 69.0369 10.2727C69.2339 10.0455 69.3741 9.77273 69.4574 9.45455H70.7983C70.7225 9.9697 70.535 10.4337 70.2358 10.8466C69.9403 11.2557 69.5483 11.5814 69.0597 11.8239C68.5748 12.0625 68.0104 12.1818 67.3665 12.1818ZM76.4176 12.1818C75.5767 12.1818 74.8513 11.9962 74.2415 11.625C73.6354 11.25 73.1676 10.7273 72.8381 10.0568C72.5123 9.38258 72.3494 8.59848 72.3494 7.70455C72.3494 6.81061 72.5123 6.02273 72.8381 5.34091C73.1676 4.6553 73.6259 4.12121 74.2131 3.73864C74.804 3.35227 75.4934 3.15909 76.2812 3.15909C76.7358 3.15909 77.1847 3.23485 77.6278 3.38636C78.071 3.53788 78.4744 3.78409 78.8381 4.125C79.2017 4.46212 79.4915 4.90909 79.7074 5.46591C79.9233 6.02273 80.0312 6.70833 80.0312 7.52273V8.09091H73.304V6.93182H78.6676C78.6676 6.43939 78.5691 6 78.3722 5.61364C78.179 5.22727 77.9025 4.92235 77.5426 4.69886C77.1866 4.47538 76.7661 4.36364 76.2812 4.36364C75.7472 4.36364 75.285 4.49621 74.8949 4.76136C74.5085 5.02273 74.2112 5.36364 74.0028 5.78409C73.7945 6.20455 73.6903 6.6553 73.6903 7.13636V7.90909C73.6903 8.56818 73.804 9.12689 74.0312 9.58523C74.2623 10.0398 74.5824 10.3864 74.9915 10.625C75.4006 10.8598 75.8759 10.9773 76.4176 10.9773C76.7699 10.9773 77.0881 10.928 77.3722 10.8295C77.66 10.7273 77.9081 10.5758 78.1165 10.375C78.3248 10.1705 78.4858 9.91667 78.5994 9.61364L79.8949 9.97727C79.7585 10.4167 79.5294 10.803 79.2074 11.1364C78.8854 11.4659 78.4877 11.7235 78.0142 11.9091C77.5407 12.0909 77.0085 12.1818 76.4176 12.1818ZM86.7528 12V0.363636H90.6847C91.5975 0.363636 92.3438 0.528409 92.9233 0.857954C93.5066 1.18371 93.9384 1.625 94.2188 2.18182C94.4991 2.73864 94.6392 3.35985 94.6392 4.04545C94.6392 4.73106 94.4991 5.35417 94.2188 5.91477C93.9422 6.47538 93.5142 6.92235 92.9347 7.25568C92.3551 7.58523 91.6127 7.75 90.7074 7.75H87.8892V6.5H90.6619C91.2869 6.5 91.7888 6.39205 92.1676 6.17614C92.5464 5.96023 92.821 5.66856 92.9915 5.30114C93.1657 4.92992 93.2528 4.51136 93.2528 4.04545C93.2528 3.57955 93.1657 3.16288 92.9915 2.79545C92.821 2.42803 92.5445 2.14015 92.1619 1.93182C91.7794 1.7197 91.2718 1.61364 90.6392 1.61364H88.1619V12H86.7528ZM96.7273 12V3.27273H98.0682V12H96.7273ZM97.4091 1.81818C97.1477 1.81818 96.9223 1.72917 96.733 1.55114C96.5473 1.37311 96.4545 1.15909 96.4545 0.909091C96.4545 0.659091 96.5473 0.445076 96.733 0.267045C96.9223 0.089015 97.1477 0 97.4091 0C97.6705 0 97.8939 0.089015 98.0795 0.267045C98.2689 0.445076 98.3636 0.659091 98.3636 0.909091C98.3636 1.15909 98.2689 1.37311 98.0795 1.55114C97.8939 1.72917 97.6705 1.81818 97.4091 1.81818ZM100.274 12V10.9773L105.229 4.61364V4.52273H100.433V3.27273H106.956V4.34091L102.138 10.6591V10.75H107.115V12H100.274ZM108.93 12V10.9773L113.885 4.61364V4.52273H109.089V3.27273H115.612V4.34091L110.794 10.6591V10.75H115.771V12H108.93ZM120.405 12.2045C119.852 12.2045 119.35 12.1004 118.899 11.892C118.448 11.6799 118.09 11.375 117.825 10.9773C117.56 10.5758 117.428 10.0909 117.428 9.52273C117.428 9.02273 117.526 8.61742 117.723 8.30682C117.92 7.99242 118.183 7.74621 118.513 7.56818C118.842 7.39015 119.206 7.25758 119.604 7.17045C120.005 7.07955 120.409 7.00758 120.814 6.95455C121.344 6.88636 121.774 6.83523 122.104 6.80114C122.437 6.76326 122.679 6.70076 122.831 6.61364C122.986 6.52652 123.064 6.375 123.064 6.15909V6.11364C123.064 5.55303 122.911 5.11742 122.604 4.80682C122.301 4.49621 121.84 4.34091 121.223 4.34091C120.583 4.34091 120.081 4.48106 119.717 4.76136C119.354 5.04167 119.098 5.34091 118.95 5.65909L117.678 5.20455C117.905 4.67424 118.208 4.26136 118.587 3.96591C118.969 3.66667 119.386 3.45833 119.837 3.34091C120.291 3.2197 120.738 3.15909 121.178 3.15909C121.458 3.15909 121.78 3.19318 122.143 3.26136C122.511 3.32576 122.865 3.46023 123.206 3.66477C123.551 3.86932 123.837 4.17803 124.064 4.59091C124.291 5.00379 124.405 5.55682 124.405 6.25V12H123.064V10.8182H122.996C122.905 11.0076 122.753 11.2102 122.541 11.4261C122.329 11.642 122.047 11.8258 121.695 11.9773C121.342 12.1288 120.912 12.2045 120.405 12.2045ZM120.609 11C121.14 11 121.587 10.8958 121.95 10.6875C122.318 10.4792 122.594 10.2102 122.78 9.88068C122.969 9.55114 123.064 9.20455 123.064 8.84091V7.61364C123.007 7.68182 122.882 7.74432 122.689 7.80114C122.5 7.85417 122.28 7.90151 122.03 7.94318C121.784 7.98106 121.543 8.01515 121.308 8.04545C121.077 8.07197 120.89 8.0947 120.746 8.11364C120.397 8.15909 120.071 8.23295 119.768 8.33523C119.469 8.43371 119.227 8.58333 119.041 8.78409C118.859 8.98106 118.768 9.25 118.768 9.59091C118.768 10.0568 118.941 10.4091 119.286 10.6477C119.634 10.8826 120.075 11 120.609 11Z" fill="#FCC21B"/>
</svg>
