<svg width="64" height="19" viewBox="0 0 64 19" fill="none" xmlns="http://www.w3.org/2000/svg">
<path d="M0.113636 18V0.545454H2.22727V8.31818H11.5341V0.545454H13.6477V18H11.5341V10.1932H2.22727V18H0.113636ZM22.9247 18.2727C21.7429 18.2727 20.706 17.9915 19.8139 17.429C18.9276 16.8665 18.2344 16.0795 17.7344 15.0682C17.2401 14.0568 16.9929 12.875 16.9929 11.5227C16.9929 10.1591 17.2401 8.96875 17.7344 7.9517C18.2344 6.93466 18.9276 6.14489 19.8139 5.58239C20.706 5.01989 21.7429 4.73864 22.9247 4.73864C24.1065 4.73864 25.1406 5.01989 26.027 5.58239C26.919 6.14489 27.6122 6.93466 28.1065 7.9517C28.6065 8.96875 28.8565 10.1591 28.8565 11.5227C28.8565 12.875 28.6065 14.0568 28.1065 15.0682C27.6122 16.0795 26.919 16.8665 26.027 17.429C25.1406 17.9915 24.1065 18.2727 22.9247 18.2727ZM22.9247 16.4659C23.8224 16.4659 24.5611 16.2358 25.1406 15.7756C25.7202 15.3153 26.1491 14.7102 26.4276 13.9602C26.706 13.2102 26.8452 12.3977 26.8452 11.5227C26.8452 10.6477 26.706 9.83239 26.4276 9.0767C26.1491 8.32102 25.7202 7.71023 25.1406 7.24432C24.5611 6.77841 23.8224 6.54545 22.9247 6.54545C22.027 6.54545 21.2884 6.77841 20.7088 7.24432C20.1293 7.71023 19.7003 8.32102 19.4219 9.0767C19.1435 9.83239 19.0043 10.6477 19.0043 11.5227C19.0043 12.3977 19.1435 13.2102 19.4219 13.9602C19.7003 14.7102 20.1293 15.3153 20.7088 15.7756C21.2884 16.2358 22.027 16.4659 22.9247 16.4659ZM31.9268 18V4.90909H33.87V6.95455H34.0405C34.3132 6.25568 34.7536 5.71307 35.3615 5.3267C35.9695 4.93466 36.6996 4.73864 37.5518 4.73864C38.4155 4.73864 39.1342 4.93466 39.7081 5.3267C40.2876 5.71307 40.7393 6.25568 41.0632 6.95455H41.1996C41.5348 6.27841 42.0376 5.74148 42.7081 5.34375C43.3786 4.94034 44.1825 4.73864 45.12 4.73864C46.2905 4.73864 47.2479 5.10511 47.9922 5.83807C48.7365 6.56534 49.1087 7.69886 49.1087 9.23864V18H47.0973V9.23864C47.0973 8.27273 46.8331 7.58239 46.3047 7.16761C45.7763 6.75284 45.1541 6.54545 44.4382 6.54545C43.5178 6.54545 42.8047 6.82386 42.299 7.38068C41.7933 7.93182 41.5405 8.63068 41.5405 9.47727V18H39.495V9.03409C39.495 8.28977 39.2536 7.69034 38.7706 7.2358C38.2876 6.77557 37.6655 6.54545 36.9041 6.54545C36.3814 6.54545 35.8928 6.68466 35.4382 6.96307C34.9893 7.24148 34.6257 7.62784 34.3473 8.12216C34.0746 8.6108 33.9382 9.17614 33.9382 9.81818V18H31.9268ZM58.2749 18.2727C57.0135 18.2727 55.9254 17.9943 55.0107 17.4375C54.1016 16.875 53.3999 16.0909 52.9055 15.0852C52.4169 14.0739 52.1726 12.8977 52.1726 11.5568C52.1726 10.2159 52.4169 9.03409 52.9055 8.01136C53.3999 6.98295 54.0874 6.18182 54.968 5.60795C55.8544 5.02841 56.8885 4.73864 58.0703 4.73864C58.7521 4.73864 59.4254 4.85227 60.0902 5.07954C60.755 5.30682 61.3601 5.67614 61.9055 6.1875C62.451 6.69318 62.8857 7.36364 63.2095 8.19886C63.5334 9.03409 63.6953 10.0625 63.6953 11.2841V12.1364H53.6044V10.3977H61.6499C61.6499 9.65909 61.5021 9 61.2067 8.42045C60.9169 7.84091 60.5021 7.38352 59.9624 7.0483C59.4283 6.71307 58.7976 6.54545 58.0703 6.54545C57.2692 6.54545 56.576 6.74432 55.9908 7.14205C55.4112 7.53409 54.9652 8.04545 54.6527 8.67614C54.3402 9.30682 54.1839 9.98295 54.1839 10.7045V11.8636C54.1839 12.8523 54.3544 13.6903 54.6953 14.3778C55.0419 15.0597 55.522 15.5795 56.1357 15.9375C56.7493 16.2898 57.4624 16.4659 58.2749 16.4659C58.8033 16.4659 59.2805 16.392 59.7067 16.2443C60.1385 16.0909 60.5107 15.8636 60.8232 15.5625C61.1357 15.2557 61.3771 14.875 61.5476 14.4205L63.4908 14.9659C63.2862 15.625 62.9425 16.2045 62.4595 16.7045C61.9766 17.1989 61.38 17.5852 60.6697 17.8636C59.9595 18.1364 59.1612 18.2727 58.2749 18.2727Z" fill="#ED6C30"/>
</svg>
