<svg width="41" height="13" viewBox="0 0 41 13" fill="none" xmlns="http://www.w3.org/2000/svg">
<path d="M0.807528 0.363636H2.48935L6.44389 10.0227H6.58026L10.5348 0.363636H12.2166V12H10.8984V3.15909H10.7848L7.14844 12H5.87571L2.23935 3.15909H2.12571V12H0.807528V0.363636ZM18.5192 12.1818C17.6783 12.1818 16.9529 11.9962 16.343 11.625C15.737 11.25 15.2692 10.7273 14.9396 10.0568C14.6139 9.38258 14.451 8.59848 14.451 7.70455C14.451 6.81061 14.6139 6.02273 14.9396 5.34091C15.2692 4.6553 15.7275 4.12121 16.3146 3.73864C16.9055 3.35227 17.5949 3.15909 18.3828 3.15909C18.8374 3.15909 19.2862 3.23485 19.7294 3.38636C20.1726 3.53788 20.576 3.78409 20.9396 4.125C21.3033 4.46212 21.593 4.90909 21.8089 5.46591C22.0249 6.02273 22.1328 6.70833 22.1328 7.52273V8.09091H15.4055V6.93182H20.7692C20.7692 6.43939 20.6707 6 20.4737 5.61364C20.2805 5.22727 20.004 4.92235 19.6442 4.69886C19.2881 4.47538 18.8677 4.36364 18.3828 4.36364C17.8487 4.36364 17.3866 4.49621 16.9964 4.76136C16.6101 5.02273 16.3127 5.36364 16.1044 5.78409C15.8961 6.20455 15.7919 6.6553 15.7919 7.13636V7.90909C15.7919 8.56818 15.9055 9.12689 16.1328 9.58523C16.3639 10.0398 16.6839 10.3864 17.093 10.625C17.5021 10.8598 17.9775 10.9773 18.5192 10.9773C18.8714 10.9773 19.1896 10.928 19.4737 10.8295C19.7616 10.7273 20.0097 10.5758 20.218 10.375C20.4264 10.1705 20.5874 9.91667 20.701 9.61364L21.9964 9.97727C21.8601 10.4167 21.6309 10.803 21.3089 11.1364C20.987 11.4659 20.5893 11.7235 20.1158 11.9091C19.6423 12.0909 19.1101 12.1818 18.5192 12.1818ZM25.5135 6.75V12H24.1726V3.27273H25.468V4.63636H25.5817C25.7862 4.19318 26.0968 3.83712 26.5135 3.56818C26.9302 3.29545 27.468 3.15909 28.1271 3.15909C28.718 3.15909 29.2351 3.2803 29.6783 3.52273C30.1214 3.76136 30.4661 4.125 30.7124 4.61364C30.9586 5.09848 31.0817 5.71212 31.0817 6.45455V12H29.7408V6.54545C29.7408 5.85985 29.5627 5.32576 29.2067 4.94318C28.8506 4.55682 28.362 4.36364 27.7408 4.36364C27.3127 4.36364 26.9302 4.45644 26.593 4.64205C26.2597 4.82765 25.9964 5.09848 25.8033 5.45455C25.6101 5.81061 25.5135 6.24242 25.5135 6.75ZM39.032 8.43182V3.27273H40.3729V12H39.032V10.5227H38.9411C38.7365 10.9659 38.4183 11.3428 37.9865 11.6534C37.5547 11.9602 37.0092 12.1136 36.3501 12.1136C35.8047 12.1136 35.3198 11.9943 34.8956 11.7557C34.4714 11.5133 34.138 11.1496 33.8956 10.6648C33.6532 10.1761 33.532 9.56061 33.532 8.81818V3.27273H34.8729V8.72727C34.8729 9.36364 35.0509 9.87121 35.407 10.25C35.7668 10.6288 36.2251 10.8182 36.782 10.8182C37.1153 10.8182 37.4543 10.733 37.799 10.5625C38.1475 10.392 38.4392 10.1307 38.674 9.77841C38.9126 9.42614 39.032 8.97727 39.032 8.43182Z" fill="#FCC21B"/>
</svg>
