<svg width="60" height="19" viewBox="0 0 60 19" fill="none" xmlns="http://www.w3.org/2000/svg">
<path d="M0.113636 0.545454H2.63636L8.56818 15.0341H8.77273L14.7045 0.545454H17.2273V18H15.25V4.73864H15.0795L9.625 18H7.71591L2.26136 4.73864H2.09091V18H0.113636V0.545454ZM26.6811 18.2727C25.4197 18.2727 24.3317 17.9943 23.4169 17.4375C22.5078 16.875 21.8061 16.0909 21.3118 15.0852C20.8232 14.0739 20.5788 12.8977 20.5788 11.5568C20.5788 10.2159 20.8232 9.03409 21.3118 8.01136C21.8061 6.98295 22.4936 6.18182 23.3743 5.60795C24.2607 5.02841 25.2947 4.73864 26.4766 4.73864C27.1584 4.73864 27.8317 4.85227 28.4964 5.07954C29.1612 5.30682 29.7663 5.67614 30.3118 6.1875C30.8572 6.69318 31.2919 7.36364 31.6158 8.19886C31.9396 9.03409 32.1016 10.0625 32.1016 11.2841V12.1364H22.0107V10.3977H30.0561C30.0561 9.65909 29.9084 9 29.6129 8.42045C29.3232 7.84091 28.9084 7.38352 28.3686 7.0483C27.8345 6.71307 27.2038 6.54545 26.4766 6.54545C25.6754 6.54545 24.9822 6.74432 24.397 7.14205C23.8175 7.53409 23.3714 8.04545 23.0589 8.67614C22.7464 9.30682 22.5902 9.98295 22.5902 10.7045V11.8636C22.5902 12.8523 22.7607 13.6903 23.1016 14.3778C23.4482 15.0597 23.9283 15.5795 24.5419 15.9375C25.1555 16.2898 25.8686 16.4659 26.6811 16.4659C27.2095 16.4659 27.6868 16.392 28.1129 16.2443C28.5447 16.0909 28.9169 15.8636 29.2294 15.5625C29.5419 15.2557 29.7834 14.875 29.9538 14.4205L31.897 14.9659C31.6925 15.625 31.3487 16.2045 30.8658 16.7045C30.3828 17.1989 29.7862 17.5852 29.076 17.8636C28.3658 18.1364 27.5675 18.2727 26.6811 18.2727ZM37.1726 10.125V18H35.1612V4.90909H37.1044V6.95455H37.2749C37.5817 6.28977 38.0476 5.75568 38.6726 5.35227C39.2976 4.94318 40.1044 4.73864 41.093 4.73864C41.9794 4.73864 42.755 4.92045 43.4197 5.28409C44.0845 5.64205 44.6016 6.1875 44.9709 6.92045C45.3402 7.64773 45.5249 8.56818 45.5249 9.68182V18H43.5135V9.81818C43.5135 8.78977 43.2464 7.98864 42.7124 7.41477C42.1783 6.83523 41.4453 6.54545 40.5135 6.54545C39.8714 6.54545 39.2976 6.68466 38.7919 6.96307C38.2919 7.24148 37.897 7.64773 37.6072 8.18182C37.3175 8.71591 37.1726 9.36364 37.1726 10.125ZM57.4503 12.6477V4.90909H59.4616V18H57.4503V15.7841H57.3139C57.0071 16.4489 56.5298 17.0142 55.8821 17.4801C55.2344 17.9403 54.4162 18.1705 53.4276 18.1705C52.6094 18.1705 51.8821 17.9915 51.2457 17.6335C50.6094 17.2699 50.1094 16.7244 49.7457 15.9972C49.3821 15.2642 49.2003 14.3409 49.2003 13.2273V4.90909H51.2116V13.0909C51.2116 14.0455 51.4787 14.8068 52.0128 15.375C52.5526 15.9432 53.2401 16.2273 54.0753 16.2273C54.5753 16.2273 55.0838 16.0994 55.6009 15.8438C56.1236 15.5881 56.5611 15.196 56.9134 14.6676C57.2713 14.1392 57.4503 13.4659 57.4503 12.6477Z" fill="#FCC21B"/>
</svg>
