<svg width="131" height="19" viewBox="0 0 131 19" fill="none" xmlns="http://www.w3.org/2000/svg">
<path d="M0.113636 18V0.545454H6.01136C7.375 0.545454 8.49432 0.778409 9.36932 1.24432C10.2443 1.70454 10.892 2.33807 11.3125 3.14489C11.733 3.9517 11.9432 4.86932 11.9432 5.89773C11.9432 6.92614 11.733 7.83807 11.3125 8.63352C10.892 9.42898 10.2472 10.054 9.37784 10.5085C8.50852 10.9574 7.39773 11.1818 6.04545 11.1818H1.27273V9.27273H5.97727C6.90909 9.27273 7.65909 9.13636 8.22727 8.86364C8.80114 8.59091 9.21591 8.20455 9.47159 7.70455C9.73295 7.19886 9.86364 6.59659 9.86364 5.89773C9.86364 5.19886 9.73295 4.58807 9.47159 4.06534C9.21023 3.54261 8.79261 3.1392 8.21875 2.85511C7.64489 2.56534 6.88636 2.42045 5.94318 2.42045H2.22727V18H0.113636ZM8.32955 10.1591L12.625 18H10.1705L5.94318 10.1591H8.32955ZM20.5405 18.2727C19.2791 18.2727 18.1911 17.9943 17.2763 17.4375C16.3672 16.875 15.6655 16.0909 15.1712 15.0852C14.6825 14.0739 14.4382 12.8977 14.4382 11.5568C14.4382 10.2159 14.6825 9.03409 15.1712 8.01136C15.6655 6.98295 16.353 6.18182 17.2337 5.60795C18.12 5.02841 19.1541 4.73864 20.3359 4.73864C21.0178 4.73864 21.6911 4.85227 22.3558 5.07954C23.0206 5.30682 23.6257 5.67614 24.1712 6.1875C24.7166 6.69318 25.1513 7.36364 25.4751 8.19886C25.799 9.03409 25.9609 10.0625 25.9609 11.2841V12.1364H15.87V10.3977H23.9155C23.9155 9.65909 23.7678 9 23.4723 8.42045C23.1825 7.84091 22.7678 7.38352 22.228 7.0483C21.6939 6.71307 21.0632 6.54545 20.3359 6.54545C19.5348 6.54545 18.8416 6.74432 18.2564 7.14205C17.6768 7.53409 17.2308 8.04545 16.9183 8.67614C16.6058 9.30682 16.4496 9.98295 16.4496 10.7045V11.8636C16.4496 12.8523 16.62 13.6903 16.9609 14.3778C17.3075 15.0597 17.7876 15.5795 18.4013 15.9375C19.0149 16.2898 19.728 16.4659 20.5405 16.4659C21.0689 16.4659 21.5462 16.392 21.9723 16.2443C22.4041 16.0909 22.7763 15.8636 23.0888 15.5625C23.4013 15.2557 23.6428 14.875 23.8132 14.4205L25.7564 14.9659C25.5518 15.625 25.2081 16.2045 24.7251 16.7045C24.2422 17.1989 23.6456 17.5852 22.9354 17.8636C22.2251 18.1364 21.4268 18.2727 20.5405 18.2727ZM38.2933 7.84091L36.4865 8.35227C36.3729 8.05114 36.2053 7.75852 35.9837 7.47443C35.7678 7.18466 35.4723 6.94602 35.0973 6.75852C34.7223 6.57102 34.2422 6.47727 33.657 6.47727C32.8558 6.47727 32.1882 6.66193 31.6541 7.03125C31.1257 7.39489 30.8615 7.85795 30.8615 8.42045C30.8615 8.92045 31.0433 9.31534 31.407 9.60511C31.7706 9.89489 32.3388 10.1364 33.1115 10.3295L35.0547 10.8068C36.2251 11.0909 37.0973 11.5256 37.6712 12.1108C38.245 12.6903 38.532 13.4375 38.532 14.3523C38.532 15.1023 38.3161 15.7727 37.8842 16.3636C37.4581 16.9545 36.8615 17.4205 36.0945 17.7614C35.3274 18.1023 34.4354 18.2727 33.4183 18.2727C32.0831 18.2727 30.978 17.983 30.103 17.4034C29.228 16.8239 28.674 15.9773 28.4411 14.8636L30.3501 14.3864C30.532 15.0909 30.8757 15.6193 31.3814 15.9716C31.8928 16.3239 32.5604 16.5 33.3842 16.5C34.3217 16.5 35.0661 16.3011 35.6172 15.9034C36.174 15.5 36.4524 15.017 36.4524 14.4545C36.4524 14 36.2933 13.6193 35.9751 13.3125C35.657 13 35.1683 12.767 34.5092 12.6136L32.3274 12.1023C31.1286 11.8182 30.2479 11.3778 29.6854 10.7812C29.1286 10.179 28.8501 9.42614 28.8501 8.52273C28.8501 7.78409 29.0575 7.13068 29.4723 6.5625C29.8928 5.99432 30.4638 5.5483 31.1854 5.22443C31.9126 4.90057 32.7365 4.73864 33.657 4.73864C34.9524 4.73864 35.9695 5.02273 36.7081 5.59091C37.4524 6.15909 37.9808 6.90909 38.2933 7.84091ZM47.0483 18.2727C45.7869 18.2727 44.6989 17.9943 43.7841 17.4375C42.875 16.875 42.1733 16.0909 41.679 15.0852C41.1903 14.0739 40.946 12.8977 40.946 11.5568C40.946 10.2159 41.1903 9.03409 41.679 8.01136C42.1733 6.98295 42.8608 6.18182 43.7415 5.60795C44.6278 5.02841 45.6619 4.73864 46.8438 4.73864C47.5256 4.73864 48.1989 4.85227 48.8636 5.07954C49.5284 5.30682 50.1335 5.67614 50.679 6.1875C51.2244 6.69318 51.6591 7.36364 51.983 8.19886C52.3068 9.03409 52.4688 10.0625 52.4688 11.2841V12.1364H42.3778V10.3977H50.4233C50.4233 9.65909 50.2756 9 49.9801 8.42045C49.6903 7.84091 49.2756 7.38352 48.7358 7.0483C48.2017 6.71307 47.571 6.54545 46.8438 6.54545C46.0426 6.54545 45.3494 6.74432 44.7642 7.14205C44.1847 7.53409 43.7386 8.04545 43.4261 8.67614C43.1136 9.30682 42.9574 9.98295 42.9574 10.7045V11.8636C42.9574 12.8523 43.1278 13.6903 43.4688 14.3778C43.8153 15.0597 44.2955 15.5795 44.9091 15.9375C45.5227 16.2898 46.2358 16.4659 47.0483 16.4659C47.5767 16.4659 48.054 16.392 48.4801 16.2443C48.9119 16.0909 49.2841 15.8636 49.5966 15.5625C49.9091 15.2557 50.1506 14.875 50.321 14.4205L52.2642 14.9659C52.0597 15.625 51.7159 16.2045 51.233 16.7045C50.75 17.1989 50.1534 17.5852 49.4432 17.8636C48.733 18.1364 47.9347 18.2727 47.0483 18.2727ZM55.5284 18V4.90909H57.4716V6.88636H57.608C57.8466 6.23864 58.2784 5.71307 58.9034 5.30966C59.5284 4.90625 60.233 4.70454 61.017 4.70454C61.1648 4.70454 61.3494 4.70739 61.571 4.71307C61.7926 4.71875 61.9602 4.72727 62.0739 4.73864V6.78409C62.0057 6.76705 61.8494 6.74148 61.6051 6.70739C61.3665 6.66761 61.1136 6.64773 60.8466 6.64773C60.2102 6.64773 59.642 6.78125 59.142 7.0483C58.6477 7.30966 58.2557 7.6733 57.9659 8.1392C57.6818 8.59943 57.5398 9.125 57.5398 9.71591V18H55.5284ZM75.5611 4.90909L70.7202 18H68.6747L63.8338 4.90909H66.0156L69.6293 15.3409H69.7656L73.3793 4.90909H75.5611ZM81.6697 18.3068C80.8402 18.3068 80.0874 18.1506 79.4112 17.8381C78.7351 17.5199 78.1982 17.0625 77.8004 16.4659C77.4027 15.8636 77.2038 15.1364 77.2038 14.2841C77.2038 13.5341 77.3516 12.9261 77.647 12.4602C77.9425 11.9886 78.3374 11.6193 78.8317 11.3523C79.326 11.0852 79.8714 10.8864 80.468 10.7557C81.0703 10.6193 81.6754 10.5114 82.2834 10.4318C83.0788 10.3295 83.7237 10.2528 84.218 10.2017C84.718 10.1449 85.0817 10.0511 85.3089 9.92045C85.5419 9.78977 85.6584 9.5625 85.6584 9.23864V9.17045C85.6584 8.32955 85.4283 7.67614 84.968 7.21023C84.5135 6.74432 83.8232 6.51136 82.897 6.51136C81.9368 6.51136 81.1839 6.72159 80.6385 7.14205C80.093 7.5625 79.7095 8.01136 79.4879 8.48864L77.5788 7.80682C77.9197 7.01136 78.3743 6.39205 78.9425 5.94886C79.5163 5.5 80.1413 5.1875 80.8175 5.01136C81.4993 4.82955 82.1697 4.73864 82.8288 4.73864C83.2493 4.73864 83.7322 4.78977 84.2777 4.89204C84.8288 4.98864 85.3601 5.19034 85.8714 5.49716C86.3885 5.80398 86.8175 6.26705 87.1584 6.88636C87.4993 7.50568 87.6697 8.33523 87.6697 9.375V18H85.6584V16.2273H85.5561C85.4197 16.5114 85.1925 16.8153 84.8743 17.1392C84.5561 17.4631 84.1328 17.7386 83.6044 17.9659C83.076 18.1932 82.4311 18.3068 81.6697 18.3068ZM81.9766 16.5C82.772 16.5 83.4425 16.3438 83.9879 16.0312C84.5391 15.7188 84.9538 15.3153 85.2322 14.821C85.5163 14.3267 85.6584 13.8068 85.6584 13.2614V11.4205C85.5732 11.5227 85.3857 11.6165 85.0959 11.7017C84.8118 11.7812 84.4822 11.8523 84.1072 11.9148C83.7379 11.9716 83.3771 12.0227 83.0249 12.0682C82.6783 12.108 82.397 12.142 82.1811 12.1705C81.6584 12.2386 81.1697 12.3494 80.7152 12.5028C80.2663 12.6506 79.9027 12.875 79.6243 13.1761C79.3516 13.4716 79.2152 13.875 79.2152 14.3864C79.2152 15.0852 79.4737 15.6136 79.9908 15.9716C80.5135 16.3239 81.1754 16.5 81.9766 16.5ZM97.0341 4.90909V6.61364H90.25V4.90909H97.0341ZM92.2273 1.77273H94.2386V14.25C94.2386 14.8182 94.321 15.2443 94.4858 15.5284C94.6563 15.8068 94.8722 15.9943 95.1335 16.0909C95.4006 16.1818 95.6818 16.2273 95.9773 16.2273C96.1989 16.2273 96.3807 16.2159 96.5227 16.1932C96.6648 16.1648 96.7784 16.142 96.8636 16.125L97.2727 17.9318C97.1364 17.983 96.946 18.0341 96.7017 18.0852C96.4574 18.142 96.1477 18.1705 95.7727 18.1705C95.2045 18.1705 94.6477 18.0483 94.1023 17.804C93.5625 17.5597 93.1136 17.1875 92.7557 16.6875C92.4034 16.1875 92.2273 15.5568 92.2273 14.7955V1.77273ZM100.06 18V4.90909H102.071V18H100.06ZM101.082 2.72727C100.69 2.72727 100.352 2.59375 100.068 2.3267C99.7898 2.05966 99.6506 1.73864 99.6506 1.36364C99.6506 0.988636 99.7898 0.667614 100.068 0.400568C100.352 0.133523 100.69 0 101.082 0C101.474 0 101.81 0.133523 102.088 0.400568C102.372 0.667614 102.514 0.988636 102.514 1.36364C102.514 1.73864 102.372 2.05966 102.088 2.3267C101.81 2.59375 101.474 2.72727 101.082 2.72727ZM111.073 18.2727C109.891 18.2727 108.854 17.9915 107.962 17.429C107.076 16.8665 106.383 16.0795 105.883 15.0682C105.388 14.0568 105.141 12.875 105.141 11.5227C105.141 10.1591 105.388 8.96875 105.883 7.9517C106.383 6.93466 107.076 6.14489 107.962 5.58239C108.854 5.01989 109.891 4.73864 111.073 4.73864C112.255 4.73864 113.289 5.01989 114.175 5.58239C115.067 6.14489 115.761 6.93466 116.255 7.9517C116.755 8.96875 117.005 10.1591 117.005 11.5227C117.005 12.875 116.755 14.0568 116.255 15.0682C115.761 16.0795 115.067 16.8665 114.175 17.429C113.289 17.9915 112.255 18.2727 111.073 18.2727ZM111.073 16.4659C111.971 16.4659 112.71 16.2358 113.289 15.7756C113.869 15.3153 114.298 14.7102 114.576 13.9602C114.854 13.2102 114.994 12.3977 114.994 11.5227C114.994 10.6477 114.854 9.83239 114.576 9.0767C114.298 8.32102 113.869 7.71023 113.289 7.24432C112.71 6.77841 111.971 6.54545 111.073 6.54545C110.175 6.54545 109.437 6.77841 108.857 7.24432C108.278 7.71023 107.849 8.32102 107.57 9.0767C107.292 9.83239 107.153 10.6477 107.153 11.5227C107.153 12.3977 107.292 13.2102 107.57 13.9602C107.849 14.7102 108.278 15.3153 108.857 15.7756C109.437 16.2358 110.175 16.4659 111.073 16.4659ZM122.087 10.125V18H120.075V4.90909H122.018V6.95455H122.189C122.496 6.28977 122.962 5.75568 123.587 5.35227C124.212 4.94318 125.018 4.73864 126.007 4.73864C126.893 4.73864 127.669 4.92045 128.334 5.28409C128.999 5.64205 129.516 6.1875 129.885 6.92045C130.254 7.64773 130.439 8.56818 130.439 9.68182V18H128.428V9.81818C128.428 8.78977 128.161 7.98864 127.626 7.41477C127.092 6.83523 126.359 6.54545 125.428 6.54545C124.786 6.54545 124.212 6.68466 123.706 6.96307C123.206 7.24148 122.811 7.64773 122.521 8.18182C122.232 8.71591 122.087 9.36364 122.087 10.125Z" fill="#FCC21B"/>
</svg>
